<svg width="32" height="32" viewBox="0 0 32 32" fill="none" xmlns="http://www.w3.org/2000/svg">
<path d="M31.8439 9.44495C31.826 8.10134 31.5745 6.77109 31.1006 5.51369C30.6896 4.45309 30.0619 3.48987 29.2577 2.68559C28.4534 1.8813 27.4901 1.25362 26.4295 0.842666C25.1883 0.376728 23.877 0.124788 22.5515 0.0975719C20.8449 0.0212885 20.3038 0 15.9716 0C11.6394 0 11.0842 1.18958e-07 9.38996 0.0975719C8.06503 0.124988 6.75436 0.376925 5.51369 0.842666C4.45293 1.25334 3.48956 1.88091 2.68523 2.68523C1.88091 3.48956 1.25333 4.45293 0.842665 5.51369C0.375795 6.75398 0.124401 8.06495 0.0993458 9.38996C0.0230624 11.0983 0 11.6394 0 15.9716C0 20.3038 -1.32176e-08 20.8573 0.0993458 22.5533C0.125956 23.8803 0.376095 25.1895 0.842665 26.4331C1.25402 27.4935 1.88206 28.4565 2.68666 29.2605C3.49125 30.0645 4.45471 30.6918 5.51547 31.1023C6.75274 31.587 8.06364 31.857 9.39173 31.9007C11.1001 31.9769 11.6412 32 15.9734 32C20.3056 32 20.8609 32 22.5551 31.9007C23.8805 31.8746 25.1919 31.6232 26.4331 31.1573C27.4934 30.7459 28.4564 30.1181 29.2606 29.3138C30.0648 28.5096 30.6927 27.5466 31.1041 26.4863C31.5707 25.2445 31.8208 23.9353 31.8474 22.6065C31.9237 20.8999 31.9468 20.3588 31.9468 16.0248C31.9432 11.6927 31.9432 11.1427 31.8439 9.44495ZM15.961 24.1641C11.4301 24.1641 7.75962 20.4936 7.75962 15.9627C7.75962 11.4319 11.4301 7.76139 15.961 7.76139C18.1361 7.76139 20.2222 8.62546 21.7602 10.1635C23.2983 11.7016 24.1623 13.7876 24.1623 15.9627C24.1623 18.1379 23.2983 20.2239 21.7602 21.762C20.2222 23.3 18.1361 24.1641 15.961 24.1641ZM24.4888 9.37044C24.2375 9.37067 23.9888 9.32137 23.7566 9.22534C23.5245 9.12932 23.3136 8.98846 23.136 8.81083C22.9583 8.6332 22.8175 8.42229 22.7214 8.19016C22.6254 7.95803 22.5761 7.70924 22.5763 7.45803C22.5763 7.20701 22.6258 6.95844 22.7218 6.72653C22.8179 6.49461 22.9587 6.28389 23.1362 6.10638C23.3137 5.92888 23.5244 5.78808 23.7564 5.69202C23.9883 5.59596 24.2368 5.54651 24.4879 5.54651C24.7389 5.54651 24.9875 5.59596 25.2194 5.69202C25.4513 5.78808 25.662 5.92888 25.8395 6.10638C26.017 6.28389 26.1578 6.49461 26.2539 6.72653C26.3499 6.95844 26.3994 7.20701 26.3994 7.45803C26.3994 8.51536 25.5443 9.37044 24.4888 9.37044Z" fill="#B1B1B1"/>
</svg>
