<svg width="144" height="32" viewBox="0 0 144 32" fill="none" xmlns="http://www.w3.org/2000/svg">
<path d="M32 16.098C32 7.2071 24.8369 0 16.002 0C7.1631 0.00199975 0 7.2071 0 16.1C0 24.133 5.85127 30.7922 13.4983 32V20.7514H9.43882V16.1H13.5023V12.5504C13.5023 8.51694 15.892 6.28921 19.5456 6.28921C21.2973 6.28921 23.1271 6.60318 23.1271 6.60318V10.5627H21.1094C19.1236 10.5627 18.5037 11.8045 18.5037 13.0784V16.098H22.9391L22.2312 20.7494H18.5017V31.998C26.1487 30.7902 32 24.131 32 16.098Z" fill="#B1B1B1"/>
<path d="M87.8439 9.44495C87.826 8.10134 87.5745 6.77109 87.1006 5.51369C86.6896 4.45309 86.0619 3.48987 85.2577 2.68559C84.4534 1.8813 83.4901 1.25362 82.4295 0.842666C81.1883 0.376728 79.877 0.124788 78.5515 0.0975719C76.8449 0.0212885 76.3038 0 71.9716 0C67.6394 0 67.0842 1.18958e-07 65.39 0.0975719C64.065 0.124988 62.7544 0.376925 61.5137 0.842666C60.4529 1.25334 59.4896 1.88091 58.6852 2.68523C57.8809 3.48956 57.2533 4.45293 56.8427 5.51369C56.3758 6.75398 56.1244 8.06495 56.0993 9.38996C56.0231 11.0983 56 11.6394 56 15.9716C56 20.3038 56 20.8573 56.0993 22.5533C56.126 23.8803 56.3761 25.1895 56.8427 26.4331C57.254 27.4935 57.8821 28.4565 58.6867 29.2605C59.4913 30.0645 60.4547 30.6918 61.5155 31.1023C62.7527 31.587 64.0636 31.857 65.3917 31.9007C67.1001 31.9769 67.6412 32 71.9734 32C76.3056 32 76.8609 32 78.5551 31.9007C79.8805 31.8746 81.1919 31.6232 82.4331 31.1573C83.4934 30.7459 84.4564 30.1181 85.2606 29.3138C86.0648 28.5096 86.6927 27.5466 87.1041 26.4863C87.5707 25.2445 87.8208 23.9353 87.8474 22.6065C87.9237 20.8999 87.9468 20.3588 87.9468 16.0248C87.9432 11.6927 87.9432 11.1427 87.8439 9.44495ZM71.961 24.1641C67.4301 24.1641 63.7596 20.4936 63.7596 15.9627C63.7596 11.4319 67.4301 7.76139 71.961 7.76139C74.1361 7.76139 76.2222 8.62546 77.7602 10.1635C79.2983 11.7016 80.1623 13.7876 80.1623 15.9627C80.1623 18.1379 79.2983 20.2239 77.7602 21.762C76.2222 23.3 74.1361 24.1641 71.961 24.1641ZM80.4888 9.37044C80.2375 9.37067 79.9888 9.32137 79.7566 9.22534C79.5245 9.12932 79.3136 8.98846 79.136 8.81083C78.9583 8.6332 78.8175 8.42229 78.7214 8.19016C78.6254 7.95803 78.5761 7.70924 78.5763 7.45803C78.5763 7.20701 78.6258 6.95844 78.7218 6.72653C78.8179 6.49461 78.9587 6.28389 79.1362 6.10638C79.3137 5.92888 79.5244 5.78808 79.7564 5.69202C79.9883 5.59596 80.2368 5.54651 80.4879 5.54651C80.7389 5.54651 80.9875 5.59596 81.2194 5.69202C81.4513 5.78808 81.662 5.92888 81.8395 6.10638C82.017 6.28389 82.1578 6.49461 82.2539 6.72653C82.3499 6.95844 82.3994 7.20701 82.3994 7.45803C82.3994 8.51536 81.5443 9.37044 80.4888 9.37044Z" fill="#B1B1B1"/>
<path d="M71.9612 21.2905C74.9034 21.2905 77.2886 18.9053 77.2886 15.963C77.2886 13.0208 74.9034 10.6356 71.9612 10.6356C69.0189 10.6356 66.6338 13.0208 66.6338 15.963C66.6338 18.9053 69.0189 21.2905 71.9612 21.2905Z" fill="#B1B1B1"/>
<path d="M122.012 29.0012C124.469 29.0167 126.905 28.5441 129.178 27.611C131.451 26.6779 133.516 25.3028 135.253 23.5655C136.99 21.8281 138.365 19.7631 139.298 17.4902C140.232 15.2173 140.704 12.7818 140.689 10.3248V9.46666C141.962 8.53355 143.065 7.38691 143.947 6.07757C142.748 6.60207 141.479 6.94993 140.18 7.11029C141.557 6.28961 142.59 4.99781 143.089 3.47393C141.805 4.24402 140.397 4.7854 138.929 5.07393C137.939 4.01992 136.63 3.32128 135.204 3.08613C133.778 2.85097 132.314 3.0924 131.039 3.77306C129.764 4.45372 128.748 5.53567 128.15 6.8515C127.551 8.16732 127.403 9.64367 127.729 11.0521C125.119 10.924 122.566 10.2478 120.235 9.06739C117.905 7.88701 115.849 6.22896 114.201 4.2012C113.371 5.64291 113.119 7.3464 113.497 8.96676C113.875 10.5871 114.855 12.0033 116.238 12.9285C115.217 12.8891 114.221 12.6101 113.329 12.1139V12.1867C113.32 13.6933 113.827 15.1576 114.767 16.3354C115.706 17.5132 117.021 18.3335 118.492 18.6594C117.543 18.9146 116.549 18.9544 115.583 18.7757C116.009 20.0607 116.822 21.1824 117.91 21.9871C118.999 22.7917 120.31 23.24 121.663 23.2703C119.349 25.1329 116.473 26.1581 113.503 26.1794C112.982 26.1643 112.463 26.1206 111.947 26.0485C114.953 27.964 118.447 28.9738 122.012 28.9576" fill="#B1B1B1"/>
</svg>
