<svg width="33" height="26" viewBox="0 0 33 26" fill="none" xmlns="http://www.w3.org/2000/svg">
<path d="M11.0122 26.0012C13.4692 26.0167 15.9047 25.5441 18.1776 24.611C20.4505 23.6779 22.5155 22.3028 24.2529 20.5655C25.9902 18.8281 27.3653 16.7631 28.2984 14.4902C29.2315 12.2173 29.7041 9.78177 29.6886 7.32484V6.46666C30.9622 5.53355 32.0645 4.38691 32.9468 3.07757C31.7475 3.60207 30.4786 3.94993 29.1795 4.11029C30.5568 3.28961 31.5903 1.99781 32.0886 0.473929C30.805 1.24402 29.3974 1.7854 27.9286 2.07393C26.9394 1.01992 25.6304 0.321283 24.2042 0.0861269C22.7779 -0.149029 21.314 0.0924013 20.0388 0.773062C18.7636 1.45372 17.7482 2.53567 17.1498 3.8515C16.5515 5.16732 16.4034 6.64367 16.7286 8.05211C14.1192 7.92403 11.566 7.24778 9.2353 6.06739C6.9046 4.88701 4.84865 3.22896 3.20132 1.2012C2.37066 2.64291 2.11889 4.3464 2.49697 5.96676C2.87506 7.58712 3.85475 9.00327 5.23769 9.92847C4.21749 9.88913 3.22089 9.61008 2.3286 9.11393V9.18666C2.31953 10.6933 2.8271 12.1576 3.76671 13.3354C4.70632 14.5132 6.02121 15.3335 7.49223 15.6594C6.54334 15.9146 5.54938 15.9544 4.58314 15.7757C5.00901 17.0607 5.82195 18.1824 6.91048 18.9871C7.99901 19.7917 9.30982 20.24 10.6631 20.2703C8.34927 22.1329 5.47346 23.1581 2.50314 23.1794C1.98235 23.1643 1.46277 23.1206 0.946777 23.0485C3.95326 24.964 7.44744 25.9738 11.0122 25.9576" fill="#B1B1B1"/>
</svg>
